<svg width="21" height="20" viewBox="0 0 21 20" fill="none" xmlns="http://www.w3.org/2000/svg">
<path d="M1.01337 1L19.0134 19M16.0134 12L17.5134 10.572C18.0043 10.0898 18.3904 9.51151 18.6475 8.87325C18.9046 8.23499 19.0272 7.55053 19.0077 6.86271C18.9881 6.17488 18.8268 5.4985 18.5338 4.87589C18.2408 4.25328 17.8224 3.69785 17.3049 3.24436C16.7874 2.79087 16.1818 2.44909 15.5261 2.24039C14.8705 2.0317 14.1787 1.96059 13.4943 2.03152C12.8099 2.10245 12.1474 2.31389 11.5485 2.65261C10.9495 2.99132 10.4269 3.45002 10.0134 4C9.06337 2.727 7.57337 2 6.01337 2M14.0134 14L10.0134 18L2.51337 10.572C1.85186 9.92841 1.38138 9.11429 1.15405 8.2198C0.926718 7.3253 0.951404 6.38533 1.22537 5.504C1.54212 4.50153 2.168 3.62501 3.01337 3" stroke="black" stroke-width="2" stroke-linecap="round" stroke-linejoin="round"/>
</svg>
