<svg width="20" height="24" viewBox="0 0 20 24" fill="none" xmlns="http://www.w3.org/2000/svg">
<path d="M9.39742 0V3.80846H10.6027V0H9.39731H9.39742ZM4.47581 1.1445L3.48832 1.88656L5.52328 5.00548L6.51023 4.2634L4.47581 1.1445ZM15.5241 1.1445L13.4897 4.26342L14.4768 5.0055L16.5117 1.88656L15.5242 1.1445H15.5241ZM9.9998 4.85048C7.05129 4.85048 4.6611 6.77214 4.6611 9.14298L7.6943 19.0019H12.3058L15.3388 9.14298C15.3388 6.77218 12.9487 4.85048 10.0001 4.85048H9.9998ZM0.411808 5.99346L0 7.20974L3.3328 8.51202L3.74613 7.29632L0.411733 5.99346H0.411808ZM19.5881 5.99346L16.2536 7.29642L16.6656 8.51226L20 7.20976L19.5881 5.99346ZM3.58513 11.5536L0.158209 12.5401L0.469147 13.7888L3.89607 12.8037L3.58518 11.5536H3.58513ZM16.4147 11.5536L16.104 12.8036L19.5309 13.7886L19.8417 12.5399L16.4147 11.5536V11.5536ZM7.62707 19.7206V21.4344H12.3731V19.7209H7.62709L7.62707 19.7206ZM7.62707 22.2863V24H12.3731V22.2866H7.62709L7.62707 22.2863Z" fill="black"/>
</svg>
