<svg width="52" height="52" viewBox="0 0 52 52" fill="none" xmlns="http://www.w3.org/2000/svg">
<rect width="52" height="52" rx="16" fill="#00ADB5"/>
<path d="M28.8943 37.8533C34.4729 37.484 38.9156 32.9773 39.2809 27.32C39.3516 26.2133 39.3516 25.0667 39.2809 23.96C38.9156 18.304 34.4729 13.8 28.8943 13.428C26.9675 13.301 25.0344 13.301 23.1076 13.428C17.5289 13.7987 13.0863 18.304 12.7209 23.9613C12.6503 25.0802 12.6503 26.2024 12.7209 27.3213C12.8543 29.3813 13.7649 31.2893 14.8383 32.9C15.4609 34.0267 15.0503 35.4333 14.4009 36.664C13.9343 37.5507 13.6996 37.9933 13.8876 38.3133C14.0743 38.6333 14.4943 38.644 15.3329 38.664C16.9929 38.704 18.1116 38.2347 18.9996 37.58C19.5023 37.208 19.7543 37.0227 19.9276 37.0013C20.1009 36.98 20.4436 37.1213 21.1263 37.4013C21.7396 37.6547 22.4529 37.8107 23.1063 37.8547C25.0063 37.98 26.9916 37.98 28.8956 37.8547" stroke="white" stroke-width="1.5" stroke-linecap="round" stroke-linejoin="round"/>
<path d="M20 30L22.456 22.632C22.5177 22.4481 22.6355 22.2883 22.7929 22.175C22.9504 22.0618 23.1394 22.0008 23.3333 22.0008C23.5273 22.0008 23.7163 22.0618 23.8737 22.175C24.0312 22.2883 24.149 22.4481 24.2107 22.632L26.6667 30M30.6667 22V30M21.3333 27.3333H25.3333" stroke="white" stroke-width="1.5" stroke-linecap="round" stroke-linejoin="round"/>
</svg>
