<svg width="64" height="64" viewBox="0 0 64 64" fill="none" xmlns="http://www.w3.org/2000/svg">
<rect width="64" height="64" rx="12" fill="#00ADB5"/>
<path d="M23.998 30.4546C24.7994 30.696 25.6967 30.8946 26.6647 31.0413M30.6647 36C24.7727 36 19.998 34.208 19.998 32M23.998 39.788C24.7994 40.0293 25.6967 40.228 26.6647 40.3746M30.6647 26.6666C36.5554 26.6666 41.3314 24.8746 41.3314 22.6666C41.3314 20.4573 36.5554 18.6666 30.6647 18.6666C24.774 18.6666 19.998 20.4573 19.998 22.6666C19.998 24.8746 24.7727 26.6666 30.6647 26.6666Z" stroke="white" stroke-width="1.5" stroke-linecap="round" stroke-linejoin="round"/>
<path d="M30.6647 45.3333C24.7727 45.3333 19.998 43.5413 19.998 41.3333V22.6666M41.3314 22.6666V30M36.9887 37.8373C36.9887 37.7573 37.0007 36.7373 37.002 36.1573C37.0034 35.6293 36.9567 35.1173 37.21 34.6506C38.1567 32.768 40.8767 32.96 41.5487 34.8786C41.666 35.1946 41.6727 35.696 41.6687 36.1586C41.6647 36.7493 41.6767 37.8386 41.6767 37.8386M36.9887 37.8373C35.5487 37.8373 34.958 38.8773 34.798 39.516C34.638 40.156 34.638 42.476 34.734 43.436C35.054 44.6346 35.854 45.1293 36.6367 45.2893C37.3567 45.3546 40.3967 45.3293 41.2767 45.3293C42.5567 45.3546 43.5167 44.8746 43.9167 43.436C43.9967 42.956 44.0767 40.316 43.8767 39.516C43.4514 38.236 42.4767 37.8386 41.6767 37.8386M36.9887 37.8373L41.6767 37.8386" stroke="white" stroke-width="1.5" stroke-linecap="round" stroke-linejoin="round"/>
</svg>
