<svg width="10" height="9" viewBox="0 0 10 9" fill="none" xmlns="http://www.w3.org/2000/svg">
<path d="M3.75 2.65115e-07C3.36209 -0.000208866 2.98367 0.123314 2.66689 0.353546C2.3501 0.583777 2.11055 0.909383 1.98125 1.28549H0V2.57098H1.98125C2.11038 2.94733 2.34984 3.27322 2.66662 3.50374C2.98341 3.73425 3.36193 3.85804 3.75 3.85804C4.13807 3.85804 4.51659 3.73425 4.83337 3.50374C5.15016 3.27322 5.38962 2.94733 5.51875 2.57098H10V1.28549H5.51875C5.38945 0.909383 5.1499 0.583777 4.83311 0.353546C4.51633 0.123314 4.13791 -0.000208866 3.75 2.65115e-07ZM6.25 5.14196C5.86209 5.14175 5.48367 5.26527 5.16689 5.4955C4.8501 5.72573 4.61055 6.05134 4.48125 6.42745H0V7.71294H4.48125C4.61038 8.08928 4.84984 8.41518 5.16663 8.64569C5.48341 8.87621 5.86193 9 6.25 9C6.63807 9 7.01659 8.87621 7.33337 8.64569C7.65016 8.41518 7.88962 8.08928 8.01875 7.71294H10V6.42745H8.01875C7.88945 6.05134 7.6499 5.72573 7.33311 5.4955C7.01633 5.26527 6.63791 5.14175 6.25 5.14196Z" fill="black"/>
</svg>
