<svg width="52" height="52" viewBox="0 0 52 52" fill="none" xmlns="http://www.w3.org/2000/svg">
<rect width="52" height="52" rx="16" fill="#00ADB5"/>
<path d="M19.3327 18.0001H32.3327C35.142 18.0001 36.546 18.0001 37.5553 18.6747C37.9917 18.9664 38.3664 19.3411 38.658 19.7774C39.3327 20.7867 39.3327 22.1907 39.3327 25.0001C39.3327 29.6814 39.3327 32.0227 38.2087 33.7041C37.966 34.0685 37.6896 34.4054 37.3793 34.7147M14.6193 34.7147C12.666 32.7601 12.666 29.6187 12.666 23.3334V19.2587C12.666 16.8374 12.666 15.6267 13.1727 14.7174C13.5342 14.0695 14.0688 13.5349 14.7167 13.1734C15.626 12.6667 16.8367 12.6667 19.258 12.6667C20.81 12.6667 21.586 12.6667 22.266 12.9214C23.8167 13.5027 24.4567 14.9121 25.1567 16.3107L25.9993 18.0001M34.3327 38.3334L31.3327 35.3334V31.3334M17.666 38.3334L20.666 35.3334V31.3334M25.9993 38.3334V31.3334M34.3327 37.3334C34.0675 37.3334 33.8131 37.4388 33.6256 37.6263C33.438 37.8138 33.3327 38.0682 33.3327 38.3334C33.3327 38.5986 33.438 38.853 33.6256 39.0405C33.8131 39.2281 34.0675 39.3334 34.3327 39.3334C34.5979 39.3334 34.8523 39.2281 35.0398 39.0405C35.2273 38.853 35.3327 38.5986 35.3327 38.3334C35.3327 38.0682 35.2273 37.8138 35.0398 37.6263C34.8523 37.4388 34.5979 37.3334 34.3327 37.3334ZM17.666 37.3334C17.9312 37.3334 18.1856 37.4388 18.3731 37.6263C18.5607 37.8138 18.666 38.0682 18.666 38.3334C18.666 38.5986 18.5607 38.853 18.3731 39.0405C18.1856 39.2281 17.9312 39.3334 17.666 39.3334C17.4008 39.3334 17.1464 39.2281 16.9589 39.0405C16.7714 38.853 16.666 38.5986 16.666 38.3334C16.666 38.0682 16.7714 37.8138 16.9589 37.6263C17.1464 37.4388 17.4008 37.3334 17.666 37.3334ZM25.9993 37.3334C25.7341 37.3334 25.4798 37.4388 25.2922 37.6263C25.1047 37.8138 24.9993 38.0682 24.9993 38.3334C24.9993 38.5986 25.1047 38.853 25.2922 39.0405C25.4798 39.2281 25.7341 39.3334 25.9993 39.3334C26.2646 39.3334 26.5189 39.2281 26.7065 39.0405C26.894 38.853 26.9993 38.5986 26.9993 38.3334C26.9993 38.0682 26.894 37.8138 26.7065 37.6263C26.5189 37.4388 26.2646 37.3334 25.9993 37.3334Z" stroke="white" stroke-width="1.5" stroke-linecap="round" stroke-linejoin="round"/>
</svg>
