<svg width="64" height="64" viewBox="0 0 64 64" fill="none" xmlns="http://www.w3.org/2000/svg">
<rect width="64" height="64" rx="12" fill="#00ADB5"/>
<path d="M38.6665 30.4067C38.6665 29.9453 38.6665 29.7147 38.7359 29.5093C38.9372 28.912 39.4692 28.6813 40.0025 28.4387C40.5999 28.1653 40.8985 28.0293 41.1959 28.0053C41.5319 27.9787 41.8692 28.0507 42.1572 28.212C42.5385 28.4253 42.8052 28.8333 43.0772 29.164C44.3345 30.692 44.9639 31.456 45.1932 32.2973C45.3799 32.9773 45.3799 33.6893 45.1932 34.368C44.8585 35.5973 43.7985 36.6267 43.0132 37.5813C42.6119 38.068 42.4105 38.312 42.1572 38.4547C41.8643 38.6171 41.5297 38.689 41.1959 38.6613C40.8985 38.6373 40.5999 38.5013 40.0012 38.228C39.4679 37.9853 38.9372 37.7547 38.7359 37.1573C38.6665 36.952 38.6665 36.7213 38.6665 36.26V30.4067ZM25.3332 30.4067C25.3332 29.8253 25.3172 29.304 24.8479 28.896C24.6772 28.748 24.4505 28.6453 23.9985 28.4387C23.3999 28.1667 23.1012 28.0293 22.8039 28.0053C21.9145 27.9333 21.4359 28.5413 20.9239 29.1653C19.6652 30.692 19.0359 31.456 18.8052 32.2987C18.6196 32.9764 18.6196 33.6916 18.8052 34.3693C19.1412 35.5973 20.2025 36.628 20.9865 37.5813C21.4812 38.1813 21.9545 38.7293 22.8039 38.6613C23.1012 38.6373 23.3999 38.5013 23.9985 38.228C24.4519 38.0227 24.6772 37.9187 24.8479 37.7707C25.3172 37.3627 25.3332 36.8413 25.3332 36.2613V30.4067Z" stroke="white" stroke-width="1.5" stroke-linecap="round" stroke-linejoin="round"/>
<path d="M22.666 28C22.666 23.5813 26.8447 20 31.9993 20C37.154 20 41.3327 23.5813 41.3327 28M41.3327 38.6667V39.7333C41.3327 42.0893 38.946 44 35.9993 44H33.3327" stroke="white" stroke-width="1.5" stroke-linecap="round" stroke-linejoin="round"/>
</svg>
