<svg width="52" height="52" viewBox="0 0 52 52" fill="none" xmlns="http://www.w3.org/2000/svg">
<rect width="52" height="52" rx="16" fill="#00ADB5"/>
<path d="M24 12.6667V15.3334M28 12.6667V15.3334M20.6667 18.6667H18M20.6667 22.6667H18M34 18.6667H31.3333M34 22.6667H31.3333M26 35.3334C26.6213 35.3334 26.932 35.3334 27.1773 35.4361C27.5036 35.5711 27.7631 35.83 27.8987 36.1561C28 36.4014 28 36.7121 28 37.3334C28 37.9547 28 38.2654 27.8973 38.5107C27.7623 38.837 27.5034 39.0965 27.1773 39.2321C26.932 39.3334 26.6213 39.3334 26 39.3334C25.3787 39.3334 25.068 39.3334 24.8227 39.2321C24.4964 39.0971 24.2369 38.8368 24.1013 38.5107C24 38.2654 24 37.9547 24 37.3334C24 36.7121 24 36.4014 24.1027 36.1561C24.2377 35.8298 24.4966 35.5704 24.8227 35.4347C25.068 35.3334 25.3787 35.3334 26 35.3334ZM26 35.3334V26.0001M27.7773 15.3334H24.2227C22.5467 15.3334 21.7067 15.3334 21.1867 15.8534C20.6667 16.3761 20.6667 17.2134 20.6667 18.8907V22.4454C20.6667 24.1214 20.6667 24.9601 21.1867 25.4814C21.708 26.0014 22.5467 26.0014 24.2227 26.0014H27.7773C29.4533 26.0014 30.292 26.0014 30.8133 25.4814C31.3333 24.9601 31.3333 24.1214 31.3333 22.4454V18.8894C31.3333 17.2134 31.3333 16.3747 30.8133 15.8547C30.292 15.3334 29.4533 15.3334 27.7773 15.3334ZM14.8227 39.2321C15.068 39.3334 15.3787 39.3334 16 39.3334C16.6213 39.3334 16.932 39.3334 17.1773 39.2321C17.5034 39.0965 17.7623 38.837 17.8973 38.5107C18 38.2654 18 37.9547 18 37.3334C18 36.7121 18 36.4014 17.8987 36.1561C17.7631 35.83 17.5036 35.5711 17.1773 35.4361C16.932 35.3334 16.6213 35.3334 16 35.3334C15.3787 35.3334 15.068 35.3334 14.8227 35.4347C14.4966 35.5704 14.2377 35.8298 14.1027 36.1561C14 36.4014 14 36.7121 14 37.3334C14 37.9547 14 38.2654 14.1013 38.5107C14.2369 38.8368 14.4964 39.0971 14.8227 39.2321Z" stroke="white" stroke-width="1.5" stroke-linecap="round" stroke-linejoin="round"/>
<path d="M16 35.3334C16 33.4614 16 32.5241 16.4493 31.8521C16.6439 31.5608 16.894 31.3107 17.1853 31.1161C17.8573 30.6667 18.7947 30.6667 20.6667 30.6667H31.3333C33.2053 30.6667 34.1427 30.6667 34.8147 31.1161C35.1053 31.3107 35.356 31.5614 35.5507 31.8521C36 32.5241 36 33.4614 36 35.3334M36 35.3334C36.6213 35.3334 36.932 35.3334 37.1773 35.4361C37.5036 35.5711 37.7631 35.83 37.8987 36.1561C38 36.4014 38 36.7121 38 37.3334C38 37.9547 38 38.2654 37.8973 38.5107C37.7623 38.8371 37.5034 39.0965 37.1773 39.2321C36.932 39.3334 36.6213 39.3334 36 39.3334C35.3787 39.3334 35.068 39.3334 34.8227 39.2321C34.4964 39.0971 34.2369 38.8368 34.1013 38.5107C34 38.2654 34 37.9547 34 37.3334C34 36.7121 34 36.4014 34.1027 36.1561C34.2377 35.8298 34.4966 35.5704 34.8227 35.4347C35.068 35.3334 35.3787 35.3334 36 35.3334Z" stroke="white" stroke-width="1.5" stroke-linecap="round" stroke-linejoin="round"/>
</svg>
