<svg width="13" height="13" viewBox="0 0 13 13" fill="none" xmlns="http://www.w3.org/2000/svg">
<path d="M12.5973 11.0624L9.51788 8.44376C9.19938 8.15694 8.85894 8.02613 8.58432 8.03832C9.40158 7.08 9.81623 5.84256 9.74139 4.58531C9.66654 3.32805 9.10801 2.14855 8.18283 1.29396C7.25765 0.439361 6.03762 -0.0240024 4.77839 0.000958548C3.51915 0.0259195 2.31844 0.537268 1.42786 1.42786C0.537267 2.31844 0.0259195 3.51915 0.000958548 4.77839C-0.0240024 6.03762 0.439361 7.25765 1.29396 8.18283C2.14855 9.10801 3.32805 9.66654 4.58531 9.74139C5.84256 9.81623 7.08 9.40158 8.03832 8.58432C8.02532 8.85894 8.15695 9.19938 8.44376 9.51788L11.0624 12.5973C11.5109 13.0953 12.243 13.1376 12.6899 12.6907C13.1368 12.2438 13.0945 11.5109 12.5964 11.0633L12.5973 11.0624ZM4.87526 8.12444C4.0133 8.12444 3.18665 7.78203 2.57716 7.17254C1.96767 6.56305 1.62526 5.7364 1.62526 4.87444C1.62526 4.01249 1.96767 3.18584 2.57716 2.57635C3.18665 1.96685 4.0133 1.62444 4.87526 1.62444C5.73721 1.62444 6.56386 1.96685 7.17335 2.57635C7.78285 3.18584 8.12526 4.01249 8.12526 4.87444C8.12526 5.7364 7.78285 6.56305 7.17335 7.17254C6.56386 7.78203 5.73721 8.12444 4.87526 8.12444Z" fill="black"/>
</svg>
