<svg width="64" height="64" viewBox="0 0 64 64" fill="none" xmlns="http://www.w3.org/2000/svg">
<rect width="64" height="64" rx="12" fill="#00ADB5"/>
<path d="M18.666 45.3333H33.3327C34.9085 45.3333 36.469 45.0229 37.9249 44.4198C39.3808 43.8168 40.7037 42.9328 41.818 41.8185C42.9323 40.7042 43.8162 39.3814 44.4192 37.9255C45.0223 36.4695 45.3327 34.9091 45.3327 33.3333C45.3327 31.7574 45.0223 30.197 44.4192 28.7411C43.8162 27.2851 42.9323 25.9623 41.818 24.848C40.7037 23.7337 39.3808 22.8498 37.9249 22.2467C36.469 21.6436 34.9085 21.3333 33.3327 21.3333C27.1553 21.3333 21.9953 25.9999 21.3327 31.9999M40.666 23.3333L41.9993 21.9999M23.3327 21.9999L24.666 23.3333" stroke="white" stroke-width="1.5" stroke-linecap="round" stroke-linejoin="round"/>
<path d="M37.9993 28L34.0793 31.92C33.8949 31.7289 33.6742 31.5766 33.4302 31.4718C33.1862 31.3669 32.9237 31.3118 32.6582 31.3095C32.3926 31.3072 32.1292 31.3578 31.8834 31.4583C31.6376 31.5589 31.4143 31.7074 31.2266 31.8952C31.0388 32.083 30.8903 32.3063 30.7897 32.5521C30.6891 32.7978 30.6385 33.0612 30.6408 33.3268C30.6432 33.5923 30.6983 33.8548 30.8031 34.0988C30.908 34.3428 31.0603 34.5635 31.2513 34.748C31.6265 35.1232 32.1354 35.3339 32.666 35.3339C33.1966 35.3339 33.7055 35.1232 34.0807 34.748C34.4559 34.3728 34.6667 33.8639 34.6667 33.3333C34.6667 32.8027 34.4559 32.2938 34.0807 31.9186M32.666 20.6666V18.6666M29.9993 18.6666H35.3327M18.666 36H22.666M18.666 41.3333H25.3327" stroke="white" stroke-width="1.5" stroke-linecap="round" stroke-linejoin="round"/>
</svg>
