<?xml version="1.0" encoding="UTF-8" standalone="no"?>
<svg
   width="30"
   height="23"
   viewBox="0 0 30 23"
   fill="none"
   version="1.1"
   id="svg1"
   sodipodi:docname="Vector.svg"
   inkscape:version="1.3.2 (091e20e, 2023-11-25, custom)"
   xmlns:inkscape="http://www.inkscape.org/namespaces/inkscape"
   xmlns:sodipodi="http://sodipodi.sourceforge.net/DTD/sodipodi-0.dtd"
   xmlns="http://www.w3.org/2000/svg"
   xmlns:svg="http://www.w3.org/2000/svg">
  <defs
     id="defs1" />
  <sodipodi:namedview
     id="namedview1"
     pagecolor="#505050"
     bordercolor="#eeeeee"
     borderopacity="1"
     inkscape:showpageshadow="0"
     inkscape:pageopacity="0"
     inkscape:pagecheckerboard="0"
     inkscape:deskcolor="#505050"
     inkscape:zoom="53.086957"
     inkscape:cx="14.994267"
     inkscape:cy="11.5"
     inkscape:window-width="3440"
     inkscape:window-height="1417"
     inkscape:window-x="-8"
     inkscape:window-y="-8"
     inkscape:window-maximized="1"
     inkscape:current-layer="svg1" />
  <path
     d="M28.2488 5.49159C26.7378 6.60777 19.1978 20.7233 18.398 20.865C18.0184 20.9334 18.7853 17.8227 21.4909 12.1634C22.435 10.1892 25.9835 3.07193 25.9835 3.07193C25.9835 3.07193 26.4011 1.97346 25.2774 2.46448C24.1536 2.9555 19.5395 10.2904 16.7503 13.4694C13.6498 17.0027 6.42121 24.6034 2.8955 19.2022C-3.17643 9.9057 11.4301 0.616833 10.6455 0.363731C10.2785 0.244773 2.4146 6.16484 0.528987 13.5048C-0.0556797 15.7701 -0.139203 21.6623 4.70518 22.2444C12.1945 23.1455 22.4806 6.35973 23.8878 4.77784C25.1989 3.30731 22.2781 8.8376 21.2733 10.5334C19.9875 12.6999 14.6066 22.1508 17.2565 22.2976C18.8182 22.3836 19.456 20.8043 23.3614 14.054C25.2647 10.7637 28.431 5.24608 28.6588 6.29645C28.7347 6.64574 27.1123 10.703 25.1103 15.3575C23.0121 20.2399 23.1741 22.0774 23.1741 22.0774L24.5434 22.1052C24.5434 22.1052 24.6421 20.1893 25.1736 18.4833C26.5429 14.0768 28.7271 9.15904 29.3599 7.54425C29.9927 5.92945 30.1116 4.11724 28.2488 5.49159Z"
     fill="black"
     id="path1" />
  <path
     style="fill:#ffffff;stroke-width:0.018837"
     d="m 17.113432,22.268523 c -0.291141,-0.07572 -0.4629,-0.268691 -0.539351,-0.605951 -0.04321,-0.190605 -0.02959,-0.663807 0.02869,-0.997096 0.335318,-1.917614 1.948561,-5.430942 4.541594,-9.890701 1.575339,-2.7094324 3.080044,-5.7233641 3.080044,-6.1693492 0,-0.069225 -0.004,-0.075123 -0.05133,-0.075123 -0.07763,0 -0.330686,0.2687634 -0.620753,0.6592957 -0.134666,0.1813063 -0.592272,0.821294 -1.016902,1.4221949 -2.209546,3.1267613 -3.536651,4.8963836 -5.043184,6.7248156 -1.791604,2.174414 -3.532712,4.011802 -5.098742,5.380691 -2.06212,1.80253 -3.943972,2.927919 -5.6027527,3.350569 -0.6316247,0.160936 -1.2731547,0.228855 -1.7985062,0.19041 C 3.1497415,22.123448 1.8006241,21.230912 1.0166896,19.628174 0.30926501,18.181858 0.08146436,16.135017 0.40686907,14.148794 0.66635805,12.564911 1.5708934,10.401778 2.7747895,8.486077 4.2294071,6.1714154 6.254533,3.8438766 8.486077,1.9219208 9.2987708,1.2219741 10.15903,0.58139351 10.501607,0.42108204 c 0.133887,-0.0626529 0.175412,-0.056188 0.150159,0.0233776 -0.02557,0.080555 -0.392112,0.4348905 -1.2332566,1.19217806 C 8.2200382,2.7156283 7.873625,3.0408701 7.1197679,3.7948898 5.7008891,5.2140744 4.6831543,6.4157539 3.800772,7.7137592 2.44569,9.7071172 1.6895148,11.562019 1.458629,13.45905 c -0.047673,0.391693 -0.05768,1.301918 -0.018802,1.710127 0.1319011,1.384921 0.5718402,2.647569 1.3578657,3.897142 0.5834228,0.927489 1.2349395,1.506392 2.0291611,1.803003 2.0411346,0.762287 4.8512778,-0.471517 8.3213852,-3.653535 1.399381,-1.283205 3.222661,-3.224352 4.369054,-4.651495 0.917308,-1.141956 1.60437,-2.071962 3.938294,-5.3308768 2.018057,-2.8178614 2.809599,-3.8439819 3.422825,-4.4371988 0.254364,-0.2460625 0.348817,-0.3096097 0.574848,-0.3867488 0.201758,-0.068856 0.327073,-0.077692 0.43359,-0.030575 0.102235,0.045224 0.144382,0.1135143 0.159307,0.2581233 0.02427,0.2351725 0.04911,0.1803285 -1.448669,3.198723 -2.958841,5.9627971 -3.447338,6.9730611 -4.200743,8.6876031 -1.075099,2.44662 -1.867981,4.669484 -2.059393,5.773546 -0.03328,0.191987 -0.04408,0.454725 -0.02141,0.520987 0.124082,0.362616 1.066819,-1.033571 3.652413,-5.409194 0.202027,-0.341891 0.687464,-1.164127 1.078752,-1.82719 0.716203,-1.213655 1.746122,-2.947746 1.943495,-3.272287 1.500284,-2.4669413 2.183014,-3.5197466 2.782037,-4.2900398 0.321117,-0.4129297 0.631008,-0.6678426 1.053432,-0.8665402 0.387306,-0.182179 0.617148,-0.1803938 0.780862,0.00607 0.102965,0.1172725 0.141621,0.2538497 0.151303,0.5345938 0.01368,0.3964978 -0.06305,0.8235926 -0.252361,1.4048218 -0.111913,0.343597 -0.212098,0.593694 -0.967242,2.4145895 C 27.053432,13.094 26.169089,15.40805 25.44315,17.612618 c -0.394864,1.199138 -0.530441,1.715276 -0.680359,2.59009 -0.107015,0.624458 -0.218159,1.535929 -0.218159,1.789087 v 0.09461 l -0.38145,-6.3e-5 c -0.209797,-3.5e-5 -0.516183,-0.0057 -0.680858,-0.01248 l -0.299409,-0.01242 0.01135,-0.284202 c 0.03184,-0.797137 0.320399,-2.053131 0.803167,-3.495915 0.378127,-1.13006 0.611359,-1.721682 1.503761,-3.814497 1.932786,-4.5326649 3.167533,-7.7022561 3.168613,-8.1338183 1.92e-4,-0.076615 -0.04998,-0.1615638 -0.103323,-0.1749525 -0.248799,-0.062445 -0.959761,0.8307735 -2.085392,2.6199912 -0.963474,1.5314626 -2.062785,3.4036106 -4.667723,7.9492226 -1.497756,2.61358 -1.963503,3.390207 -2.452325,4.089215 -0.367317,0.525259 -0.717659,0.921773 -1.004373,1.136741 -0.16181,0.121318 -0.429468,0.25365 -0.593366,0.293364 -0.168712,0.04088 -0.530129,0.05307 -0.649877,0.02193 z"
     id="path2" />
</svg>
