<svg width="33" height="33" viewBox="0 0 33 33" fill="none" xmlns="http://www.w3.org/2000/svg">
<path d="M16.5 33C25.6127 33 33 25.6127 33 16.5C33 7.3873 25.6127 0 16.5 0C7.3873 0 0 7.3873 0 16.5C0 25.6127 7.3873 33 16.5 33Z" fill="#E1E1E1"/>
<path d="M30.0715 9.03942C28.463 10.2276 20.4366 25.2538 19.5852 25.4047C19.181 25.4774 19.9974 22.1661 22.8776 16.1416C23.8826 14.0401 27.6601 6.46365 27.6601 6.46365C27.6601 6.46365 28.1046 5.29432 26.9083 5.81702C25.7121 6.33971 20.8003 14.1478 17.8312 17.5319C14.5306 21.2932 6.83567 29.3842 3.08249 23.6345C-3.38118 13.7383 12.1677 3.85016 11.3325 3.58073C10.9418 3.4541 2.57057 9.75611 0.563299 17.5696C-0.0590879 19.981 -0.148 26.2534 5.00892 26.8731C12.9814 27.8323 23.9311 9.96357 25.4292 8.27962C26.8248 6.71422 23.7156 12.6013 22.6459 14.4065C21.2772 16.7128 15.5491 26.7734 18.37 26.9297C20.0324 27.0213 20.7114 25.34 24.8687 18.1543C26.8949 14.6517 30.2655 8.77807 30.5079 9.89621C30.5888 10.268 28.8617 14.587 26.7305 19.5419C24.4969 24.7392 24.6694 26.6953 24.6694 26.6953L26.127 26.7249C26.127 26.7249 26.2321 24.6853 26.7979 22.8693C28.2555 18.1785 30.5807 12.9435 31.2543 11.2245C31.9279 9.50554 32.0545 7.5764 30.0715 9.03942Z" fill="#676767"/>
</svg>
