<svg width="48" height="48" viewBox="0 0 48 48" fill="none" xmlns="http://www.w3.org/2000/svg">
<mask id="mask0_181_100" style="mask-type:luminance" maskUnits="userSpaceOnUse" x="0" y="0" width="48" height="48">
<path d="M24 48C37.2548 48 48 37.2548 48 24C48 10.7452 37.2548 0 24 0C10.7452 0 0 10.7452 0 24C0 37.2548 10.7452 48 24 48Z" fill="white"/>
</mask>
<g mask="url(#mask0_181_100)">
<path d="M24 48C37.2548 48 48 37.2548 48 24C48 10.7452 37.2548 0 24 0C10.7452 0 0 10.7452 0 24C0 37.2548 10.7452 48 24 48Z" fill="#E6DCCB"/>
<path d="M43.7401 13.1483C41.4004 14.8765 29.7257 36.7328 28.4873 36.9523C27.8994 37.0581 29.0869 32.2417 33.2763 23.4788C34.7381 20.4219 40.2326 9.40169 40.2326 9.40169C40.2326 9.40169 40.8792 7.70084 39.1392 8.46113C37.3991 9.22142 30.2548 20.5787 25.936 25.501C21.1352 30.9719 9.94255 42.7407 4.48337 34.3775C-4.91833 19.983 17.6983 5.60026 16.4834 5.20836C15.9151 5.02416 3.73876 14.1907 0.8191 25.5558C-0.0861901 29.0634 -0.215517 38.1868 7.28546 39.0882C18.8818 40.4833 34.8086 14.4925 36.9876 12.0431C39.0177 9.76616 34.4951 18.3292 32.9393 20.9549C30.9484 24.3096 22.6166 38.9432 26.7198 39.1705C29.1378 39.3037 30.1254 36.8583 36.1725 26.4063C39.1196 21.3116 44.0222 12.7681 44.3749 14.3945C44.4925 14.9353 41.9804 21.2175 38.8805 28.4246C35.6316 35.9843 35.8825 38.8295 35.8825 38.8295L38.0026 38.8726C38.0026 38.8726 38.1555 35.9059 38.9785 33.2645C41.0987 26.4415 44.4808 18.8269 45.4605 16.3266C46.4403 13.8263 46.6245 11.0202 43.7401 13.1483Z" fill="#24980D"/>
</g>
</svg>
