<svg width="783" height="543" viewBox="0 0 783 543" fill="none" xmlns="http://www.w3.org/2000/svg">
<path d="M445.234 88.7504C420.985 105.544 295.923 323.159 283.327 325.002C277.337 325.903 290.836 277.53 335.969 190.083C351.725 159.569 410.809 49.7575 410.809 49.7575C410.809 49.7575 417.866 32.7185 400.018 39.8864C382.17 47.0542 306.222 159.814 260.924 208.31C210.58 262.212 93.4783 377.921 40.6719 291.62C-50.2109 143.062 183.5 4.41588 171.272 0.0332678C165.61 -1.97372 39.3179 87.0711 6.20621 201.224C-4.01041 236.449 -8.11347 328.77 67.6701 340.198C184.812 357.851 354.269 99.6865 377.123 75.5616C398.377 53.1161 349.92 138.434 333.343 164.525C312.13 197.906 223.176 343.433 264.699 346.956C289.153 349.045 299.944 324.592 364.445 220.679C395.915 170.013 448.188 85.0232 451.265 101.612C452.291 107.1 424.883 169.931 391.279 241.937C356.033 317.465 357.674 346.342 357.674 346.342L381.185 346.669C381.185 346.669 381.636 317.424 390.745 290.965C414.338 222.563 450.978 146.503 461.646 121.518C472.314 96.5326 475.063 68.1481 445.193 88.8324L445.234 88.7504Z" fill="#158F15"/>
<path d="M579.937 337.289C561.802 340.033 587.651 270.075 592.534 257.992C598.934 242.1 618.67 201.592 605.704 200.445C603.94 200.281 602.094 200.035 600.206 199.831C595.775 199.708 593.724 199.339 592.616 203.312C591.795 201.96 587.569 199.257 578.296 203.025C570.008 206.998 559.955 214.903 546.949 230.345C527.828 253.118 487.947 327.868 505.097 342.655C534.763 368.213 561.227 304.972 561.227 304.972C561.227 304.972 550.6 354.205 576.08 347.815C601.56 341.426 624.373 280.97 624.373 280.97V272.246C624.373 272.246 597.991 334.545 579.855 337.33L579.937 337.289ZM569.474 258.525C556.673 286.827 528.895 345.849 517.037 339.664C506.164 334.012 524.874 291.128 535.255 269.829C553.39 232.639 575.137 209.906 582.563 213.142C588.184 215.559 582.276 230.222 569.474 258.566V258.525Z" fill="#158F15"/>
<path d="M476.458 337.289C458.322 340.033 484.172 270.075 489.054 257.992C495.455 242.1 515.191 201.592 502.225 200.445C500.461 200.281 498.614 200.035 496.727 199.831C492.296 199.708 490.244 199.339 489.136 203.312C488.316 201.96 484.089 199.257 474.817 203.025C466.528 206.998 456.476 214.903 443.469 230.345C424.349 253.118 384.467 327.868 401.618 342.655C431.283 368.213 457.748 304.972 457.748 304.972C457.748 304.972 447.121 354.205 472.601 347.815C498.081 341.426 520.894 280.97 520.894 280.97V272.246C520.894 272.246 494.511 334.545 476.376 337.33L476.458 337.289ZM465.995 258.525C453.193 286.827 425.416 345.849 413.558 339.664C402.685 334.012 421.395 291.128 431.775 269.829C449.911 232.639 471.657 209.906 479.084 213.142C484.705 215.559 478.797 230.222 465.995 258.566V258.525Z" fill="#158F15"/>
<path d="M735.279 132.535C735.279 135.73 790.752 172.347 761.128 238.004C728.591 310.051 657.075 354.246 650.879 358.67C653.669 351.338 657.813 341.794 662.573 331.145C672.625 308.7 685.632 281.216 695.684 258.156C697.736 253.405 699.623 248.899 701.388 244.64C709.225 226.208 719.072 201.305 708.937 200.404C707.173 200.24 705.327 199.994 703.439 199.79C699.008 199.667 696.956 199.298 695.849 203.271C695.028 201.919 690.802 199.216 681.529 202.984C673.241 206.957 663.188 214.863 650.182 230.304C631.061 253.077 591.179 327.827 608.33 342.614C627.656 359.243 645.586 338.231 655.721 321.561C648.089 341.631 641.319 359.325 638.118 368.172C568.777 421.951 488.521 519.352 513.18 538.521C548.097 565.635 608.7 464.549 645.258 372.841C727.565 309.068 750.542 288.957 773.561 240.38C806.754 170.381 735.197 124.589 735.197 132.535H735.279ZM530.7 517.591C512.278 503.255 604.843 405.199 631.718 385.006C619.162 428.136 552.857 534.793 530.7 517.591ZM620.229 339.665C609.356 334.012 628.066 291.128 638.447 269.83C656.582 232.639 678.328 209.906 685.755 213.142C691.376 215.559 685.468 230.222 672.666 258.566C659.865 286.868 632.087 345.89 620.229 339.706V339.665Z" fill="#158F15"/>
</svg>
