<svg width="182" height="126" viewBox="0 0 182 126" fill="none" xmlns="http://www.w3.org/2000/svg">
<path d="M103.511 20.594C97.8649 24.4908 68.7471 74.9871 65.8143 75.4148C64.4195 75.6239 67.5625 64.3993 78.0709 44.1076C81.7393 37.0269 95.4957 11.5459 95.4957 11.5459C95.4957 11.5459 97.1388 7.59215 92.9833 9.2554C88.8277 10.9186 71.1449 37.084 60.5983 48.3371C48.8767 60.8447 21.6122 87.6943 9.3174 67.6688C-11.8427 33.1967 42.5717 1.02468 39.7248 0.0077196C38.4065 -0.457991 9.00215 20.2043 1.29281 46.6928C-1.0859 54.8665 -2.04121 76.2892 15.6033 78.9409C42.8774 83.0372 82.3316 23.1317 87.6526 17.5336C92.6011 12.3253 81.3189 32.1227 77.4595 38.177C72.5206 45.923 51.8095 79.6917 61.4772 80.5091C67.1708 80.9938 69.6833 75.3197 84.7007 51.2074C92.028 39.4505 104.199 19.7291 104.915 23.5784C105.154 24.8519 98.7724 39.4315 90.9484 56.1401C82.7423 73.666 83.1245 80.3665 83.1245 80.3665L88.5984 80.4426C88.5984 80.4426 88.7035 73.6565 90.8243 67.5167C96.3173 51.6446 104.848 33.9951 107.332 28.1975C109.816 22.3998 110.456 15.8134 103.501 20.613L103.511 20.594Z" fill="#158F15"/>
<path d="M134.873 78.2659C130.651 78.9027 136.669 62.6694 137.806 59.8656C139.297 56.1779 143.892 46.7782 140.873 46.5121C140.462 46.4741 140.032 46.417 139.593 46.3695C138.561 46.341 138.083 46.2555 137.825 47.1774C137.634 46.8637 136.65 46.2365 134.491 47.1108C132.562 48.0328 130.221 49.8671 127.193 53.4502C122.741 58.7346 113.455 76.0799 117.449 79.511C124.356 85.4417 130.517 70.767 130.517 70.767C130.517 70.767 128.043 82.1912 133.975 80.7085C139.908 79.2259 145.219 65.1975 145.219 65.1975V63.1731C145.219 63.1731 139.077 77.6291 134.854 78.2754L134.873 78.2659ZM132.437 59.9892C129.457 66.5566 122.989 80.2523 120.229 78.8172C117.697 77.5056 122.053 67.5546 124.47 62.6124C128.693 53.9825 133.756 48.7076 135.485 49.4584C136.794 50.0192 135.418 53.4217 132.437 59.9987V59.9892Z" fill="#158F15"/>
<path d="M110.781 78.2659C106.558 78.9027 112.577 62.6694 113.713 59.8656C115.204 56.1779 119.799 46.7782 116.78 46.5121C116.369 46.4741 115.939 46.417 115.5 46.3695C114.468 46.341 113.99 46.2555 113.732 47.1774C113.541 46.8637 112.557 46.2365 110.398 47.1108C108.469 48.0328 106.128 49.8671 103.1 53.4502C98.6481 58.7346 89.3626 76.0799 93.3558 79.511C100.263 85.4417 106.424 70.767 106.424 70.767C106.424 70.767 103.95 82.1912 109.883 80.7085C115.815 79.2259 121.127 65.1975 121.127 65.1975V63.1731C121.127 63.1731 114.984 77.6291 110.761 78.2754L110.781 78.2659ZM108.345 59.9892C105.364 66.5566 98.8965 80.2523 96.1357 78.8172C93.6041 77.5056 97.9603 67.5546 100.377 62.6124C104.6 53.9825 109.663 48.7076 111.392 49.4584C112.701 50.0192 111.325 53.4217 108.345 59.9987V59.9892Z" fill="#158F15"/>
<path d="M171.041 30.754C171.041 31.4953 183.957 39.9921 177.06 55.2275C169.484 71.9456 152.833 82.2007 151.391 83.2272C152.04 81.5259 153.005 79.3114 154.113 76.8403C156.454 71.6319 159.482 65.2546 161.823 59.9036C162.3 58.8011 162.74 57.7557 163.151 56.7672C164.975 52.4903 167.268 46.7117 164.908 46.5026C164.498 46.4646 164.068 46.4075 163.628 46.36C162.596 46.3315 162.119 46.246 161.861 47.1679C161.67 46.8542 160.686 46.227 158.527 47.1014C156.597 48.0233 154.257 49.8576 151.228 53.4407C146.777 58.7251 137.491 76.0704 141.484 79.5015C145.984 83.3602 150.158 78.4845 152.518 74.6163C150.741 79.2734 149.165 83.3792 148.42 85.4322C132.275 97.9113 113.589 120.513 119.331 124.961C127.46 131.252 141.57 107.796 150.082 86.5157C169.245 71.7175 174.595 67.0509 179.954 55.7788C187.683 39.5359 171.022 28.9101 171.022 30.754H171.041ZM123.41 120.104C119.12 116.777 140.672 94.0241 146.929 89.3384C144.006 99.3465 128.568 124.096 123.41 120.104ZM144.255 78.8172C141.723 77.5056 146.079 67.5546 148.496 62.6124C152.719 53.9825 157.782 48.7076 159.511 49.4584C160.82 50.0192 159.444 53.4217 156.463 59.9987C153.483 66.5661 147.015 80.2618 144.255 78.8267V78.8172Z" fill="#158F15"/>
</svg>
