<svg
  width="123"
  height="82"
  viewBox="-12 -1 123 82"
  fill="none"
  xmlns="http://www.w3.org/2000/svg"
>
  <path
    d="M103.511 20.594C97.8649 24.4908 68.7471 74.9871 65.8143 75.4148C64.4195 75.6239 67.5625 64.3993 78.0709 44.1076C81.7393 37.0269 95.4957 11.5459 95.4957 11.5459C95.4957 11.5459 97.1388 7.59215 92.9833 9.2554C88.8277 10.9186 71.1449 37.084 60.5983 48.3371C48.8767 60.8447 21.6122 87.6943 9.3174 67.6688C-11.8427 33.1967 42.5717 1.02468 39.7248 0.0077196C38.4065 -0.457991 9.00215 20.2043 1.29281 46.6928C-1.0859 54.8665 -2.04121 76.2892 15.6033 78.9409C42.8774 83.0372 82.3316 23.1317 87.6526 17.5336C92.6011 12.3253 81.3189 32.1227 77.4595 38.177C72.5206 45.923 51.8095 79.6917 61.4772 80.5091C67.1708 80.9938 69.6833 75.3197 84.7007 51.2074C92.028 39.4505 104.199 19.7291 104.915 23.5784C105.154 24.8519 98.7724 39.4315 90.9484 56.1401C82.7423 73.666 83.1245 80.3665 83.1245 80.3665L88.5984 80.4426C88.5984 80.4426 88.7035 73.6565 90.8243 67.5167C96.3173 51.6446 104.848 33.9951 107.332 28.1975C109.816 22.3998 110.456 15.8134 103.501 20.613L103.511 20.594Z"
    fill="#158F15"
  />
</svg>
