<svg width="31" height="31" viewBox="0 0 31 31" fill="none" xmlns="http://www.w3.org/2000/svg">
<path d="M15.5 0.5C23.7842 0.5 30.5 7.21573 30.5 15.5C30.5 23.7843 23.7842 30.5 15.5 30.5C7.2157 30.5 0.499969 23.7843 0.499969 15.5C0.499969 7.21573 7.2157 0.5 15.5 0.5Z" stroke="#24980D"/>
<path d="M28.2487 8.49162C26.7377 9.6078 19.1978 23.7233 18.398 23.8651C18.0183 23.9334 18.7852 20.8228 21.4909 15.1634C22.435 13.1892 25.9835 6.07196 25.9835 6.07196C25.9835 6.07196 26.4011 4.97349 25.2773 5.46451C24.1535 5.95553 19.5395 13.2904 16.7503 16.4694C13.6498 20.0027 6.42118 27.6034 2.89547 22.2022C-3.17646 12.9057 11.4301 3.61686 10.6455 3.36376C10.2785 3.2448 2.41457 9.16487 0.528957 16.5048C-0.0557103 18.7701 -0.139234 24.6623 4.70515 25.2445C12.1945 26.1455 22.4805 9.35976 23.8878 7.77787C25.1989 6.30734 22.2781 11.8376 21.2732 13.5334C19.9875 15.7 14.6065 25.1508 17.2565 25.2976C18.8181 25.3837 19.456 23.8043 23.3613 17.0541C25.2647 13.7637 28.431 8.24611 28.6588 9.29648C28.7347 9.64577 27.1123 13.703 25.1103 18.3576C23.0121 23.2399 23.174 25.0774 23.174 25.0774L24.5433 25.1053C24.5433 25.1053 24.642 23.1893 25.1736 21.4834C26.5428 17.0769 28.7271 12.1591 29.3599 10.5443C29.9926 8.92949 30.1116 7.11727 28.2487 8.49162Z" fill="#24980D"/>
</svg>
