<svg width="45" height="44" viewBox="0 0 45 44" fill="none" xmlns="http://www.w3.org/2000/svg">
<rect x="0.5" width="44" height="44" rx="22" fill="white" fill-opacity="0.1"/>
<path d="M32.5 22.3038C32.5 16.7472 28.0229 12.2427 22.5 12.2427C16.9771 12.2427 12.5 16.7472 12.5 22.3038C12.5 27.3255 16.1568 31.4879 20.9375 32.2427V25.2121H18.3984V22.3038H20.9375V20.0872C20.9375 17.5656 22.4305 16.1728 24.7146 16.1728C25.8088 16.1728 26.9531 16.3693 26.9531 16.3693V18.8453H25.6922C24.45 18.8453 24.0625 19.6209 24.0625 20.4166V22.3038H26.8359L26.3926 25.2121H24.0625V32.2427C28.8432 31.4879 32.5 27.3257 32.5 22.3038Z" fill="white"/>
</svg>
