<svg width="44" height="44" viewBox="0 0 44 44" fill="none" xmlns="http://www.w3.org/2000/svg">
<rect width="44" height="44" rx="22" fill="white" fill-opacity="0.1"/>
<path fill-rule="evenodd" clip-rule="evenodd" d="M26 13.2427H18C15.2386 13.2427 13 15.4813 13 18.2427V26.2427C13 29.0041 15.2386 31.2427 18 31.2427H26C28.7614 31.2427 31 29.0041 31 26.2427V18.2427C31 15.4813 28.7614 13.2427 26 13.2427ZM29.25 26.2427C29.2445 28.0353 27.7926 29.4872 26 29.4927H18C16.2074 29.4872 14.7555 28.0353 14.75 26.2427V18.2427C14.7555 16.45 16.2074 14.9982 18 14.9927H26C27.7926 14.9982 29.2445 16.45 29.25 18.2427V26.2427ZM26.75 18.4927C27.3023 18.4927 27.75 18.045 27.75 17.4927C27.75 16.9404 27.3023 16.4927 26.75 16.4927C26.1977 16.4927 25.75 16.9404 25.75 17.4927C25.75 18.045 26.1977 18.4927 26.75 18.4927ZM22 17.7427C19.5147 17.7427 17.5 19.7574 17.5 22.2427C17.5 24.728 19.5147 26.7427 22 26.7427C24.4853 26.7427 26.5 24.728 26.5 22.2427C26.5027 21.0484 26.0294 19.9022 25.1849 19.0578C24.3404 18.2133 23.1943 17.74 22 17.7427ZM19.25 22.2427C19.25 23.7615 20.4812 24.9927 22 24.9927C23.5188 24.9927 24.75 23.7615 24.75 22.2427C24.75 20.7239 23.5188 19.4927 22 19.4927C20.4812 19.4927 19.25 20.7239 19.25 22.2427Z" fill="white"/>
</svg>
