<svg width="44" height="44" viewBox="0 0 44 44" fill="none" xmlns="http://www.w3.org/2000/svg">
<rect width="44" height="44" rx="22" fill="white" fill-opacity="0.1"/>
<path fill-rule="evenodd" clip-rule="evenodd" d="M14.5 13.2427C13.6716 13.2427 13 13.9142 13 14.7427V29.7427C13 30.5711 13.6716 31.2427 14.5 31.2427H29.5C30.3284 31.2427 31 30.5711 31 29.7427V14.7427C31 13.9142 30.3284 13.2427 29.5 13.2427H14.5ZM18.5208 17.2454C18.5264 18.2016 17.8106 18.7909 16.9612 18.7866C16.1611 18.7824 15.4636 18.1454 15.4678 17.2468C15.472 16.4016 16.14 15.7224 17.0076 15.7421C17.8879 15.7618 18.5264 16.4073 18.5208 17.2454ZM22.2797 20.0044H19.7597H19.7583V28.5643H22.4217V28.3646C22.4217 27.9847 22.4214 27.6047 22.4211 27.2246C22.4203 26.2108 22.4194 25.1959 22.4246 24.1824C22.426 23.9363 22.4372 23.6804 22.5005 23.4455C22.7381 22.568 23.5271 22.0013 24.4074 22.1406C24.9727 22.2291 25.3467 22.5568 25.5042 23.0898C25.6013 23.423 25.6449 23.7816 25.6491 24.129C25.6605 25.1766 25.6589 26.2242 25.6573 27.2719C25.6567 27.6417 25.6561 28.0117 25.6561 28.3815V28.5629H28.328V28.3576C28.328 27.9056 28.3278 27.4537 28.3275 27.0018C28.327 25.8723 28.3264 24.7428 28.3294 23.6129C28.3308 23.1024 28.276 22.599 28.1508 22.1054C27.9638 21.3713 27.5771 20.7638 26.9485 20.3251C26.5027 20.0129 26.0133 19.8118 25.4663 19.7893C25.404 19.7867 25.3412 19.7833 25.2781 19.7799C24.9984 19.7648 24.7141 19.7494 24.4467 19.8033C23.6817 19.9566 23.0096 20.3068 22.5019 20.9241C22.4429 20.9949 22.3852 21.0668 22.2991 21.1741L22.2797 21.1984V20.0044ZM15.6816 28.5671H18.3324V20.01H15.6816V28.5671Z" fill="white"/>
</svg>
