<svg width="44" height="44" viewBox="0 0 44 44" fill="none" xmlns="http://www.w3.org/2000/svg">
<rect width="44" height="44" rx="22" fill="white" fill-opacity="0.1"/>
<path d="M31.5933 17.203C31.4794 16.7804 31.2568 16.395 30.9477 16.0852C30.6386 15.7753 30.2537 15.5519 29.8313 15.437C28.2653 15.007 22.0003 15 22.0003 15C22.0003 15 15.7363 14.993 14.1693 15.404C13.7473 15.5242 13.3632 15.7508 13.0539 16.0621C12.7446 16.3735 12.5206 16.7591 12.4033 17.182C11.9903 18.748 11.9863 21.996 11.9863 21.996C11.9863 21.996 11.9823 25.26 12.3923 26.81C12.6223 27.667 13.2973 28.344 14.1553 28.575C15.7373 29.005 21.9853 29.012 21.9853 29.012C21.9853 29.012 28.2503 29.019 29.8163 28.609C30.2388 28.4943 30.6241 28.2714 30.934 27.9622C31.2439 27.653 31.4677 27.2682 31.5833 26.846C31.9973 25.281 32.0003 22.034 32.0003 22.034C32.0003 22.034 32.0203 18.769 31.5933 17.203ZM19.9963 25.005L20.0013 19.005L25.2083 22.01L19.9963 25.005Z" fill="white"/>
</svg>
